IKResults
version=1
nRows=7
nColumns=67
inDegrees=yes

Units are S.I. units (second, meters, Newtons, ...)
Angles are in degrees.

endheader
time	pelvis_tilt	pelvis_list	pelvis_rotation	pelvis_tx	pelvis_ty	pelvis_tz	hip_flexion_r	hip_adduction_r	hip_rotation_r	knee_angle_r	knee_rot_r	knee_adduc_r	ankle_angle_r	ankle_rot_r	ankle_add_r	subtalar_angle_r	mtp_angle_r	mtp_rot_r	mtp_add_r	hip_flexion_l	hip_adduction_l	hip_rotation_l	knee_angle_l	knee_rot_l	knee_adduc_l	ankle_angle_l	ankle_rot_l	ankle_add_l	subtalar_angle_l	mtp_angle_l	mtp_rot_l	mtp_add_l	lumbar_extension	lumbar_bending	lumbar_rotation	neck_flexion	neck_lateral_bending	neck_rotation	arm_flex_r	arm_add_r	arm_rot_r	elbow_flex_r	elbow_rot_r	elbow_add_r	pro_sup_r	wrist_flex_r	wrist_adduc_r	wrist_rot_r	wrist_dev_r	hand_finger_flex_r	hand_finger_adduc_r	hand_finger_rot_r	arm_flex_l	arm_add_l	arm_rot_l	elbow_flex_l	elbow_rot_l	elbow_add_l	pro_sup_l	wrist_flex_l	wrist_adduc_l	wrist_rot_l	wrist_dev_l	hand_finger_flex_l	hand_finger_adduc_l	hand_finger_rot_l
      2.00000000	     17.39801532	      0.40225367	      0.36661951	     -0.67724408	      0.76363155	      0.59811228	     -8.02263529	      1.18884618	      1.50006437	    -15.09890361	     -5.00000000	     -0.20552212	      5.75087696	     -2.87382760	      5.00000000	     -1.35261912	     11.47652871	     -1.86976992	     -0.23808561	     -2.07697955	     -2.50684670	     -1.37944379	    -64.51223332	      5.00000000	     -5.00000000	      1.51286432	      0.22057926	      3.48099227	      2.78428489	     29.71473620	      2.00000000	     -2.00000000	    -29.37637147	      2.57130304	     -2.23460865	      0.00000000	      0.00000000	      0.00000000	      0.00000000	      0.00000000	      0.00000000	      0.00000000	      0.00000000	      0.00000000	     -0.00042092	      0.00000000	      0.00000000	      0.00000000	      0.00000000	      0.00000000	      0.00000000	      0.00000000	      0.00000000	      0.00000000	      0.00000000	      0.00000000	      0.00000000	      0.00000000	      0.00000000	      0.00000000	      0.00000000	      0.00000000	      0.00000000	      0.00000000	      0.00000000	      0.00000000
      2.00500000	     17.35545751	      0.61861003	     -0.41028255	     -0.67176636	      0.76462264	      0.59957852	     -8.70682211	      0.90909552	      1.57981664	    -14.50986019	     -5.00000000	     -0.46209797	      5.88731996	     -2.41283895	      5.00000000	     -0.68752891	     11.40404376	     -1.81163310	     -0.28249817	     -1.52537145	     -2.43158768	     -2.57599508	    -64.02227362	      5.00000000	     -5.00000000	      1.86523756	     -0.00041367	      2.91056652	      3.43119999	     29.79934792	      2.00000000	     -2.00000000	    -29.33465767	      1.91571633	     -1.41087964	      0.00000000	      0.00000000	      0.00000000	      0.00000000	      0.00000000	      0.00000000	      0.00000000	      0.00000000	      0.00000000	     -0.00042092	      0.00000000	      0.00000000	      0.00000000	      0.00000000	      0.00000000	      0.00000000	      0.00000000	      0.00000000	      0.00000000	      0.00000000	      0.00000000	      0.00000000	      0.00000000	      0.00000000	      0.00000000	      0.00000000	      0.00000000	      0.00000000	      0.00000000	      0.00000000	      0.00000000
      2.01000000	     17.30238043	      0.67215047	     -0.60241061	     -0.66680022	      0.76532839	      0.60024862	     -9.37764548	      0.80568564	      1.52271536	    -13.95379369	     -5.00000000	     -0.39942747	      6.01072450	     -2.41317457	      5.00000000	     -0.62277440	     11.39362091	     -1.80291085	     -0.28896151	     -0.65067690	     -2.43549692	     -3.08232004	    -63.82000920	      5.00000000	     -5.00000000	      1.90466675	     -0.00364053	      2.81797446	      3.52266226	     29.81380900	      2.00000000	     -2.00000000	    -29.42241050	      1.76918852	     -1.32883069	      0.00000000	      0.00000000	      0.00000000	      0.00000000	      0.00000000	      0.00000000	      0.00000000	      0.00000000	      0.00000000	     -0.00042092	      0.00000000	      0.00000000	      0.00000000	      0.00000000	      0.00000000	      0.00000000	      0.00000000	      0.00000000	      0.00000000	      0.00000000	      0.00000000	      0.00000000	      0.00000000	      0.00000000	      0.00000000	      0.00000000	      0.00000000	      0.00000000	      0.00000000	      0.00000000	      0.00000000
      2.01500000	     17.32257017	      0.86867814	     -1.22320589	     -0.66139345	      0.76617820	      0.60152553	    -10.15036712	      0.52223753	      1.47962465	    -13.30536745	     -5.00000000	     -0.56337461	      6.17388551	     -2.07605590	      5.00000000	     -0.01135450	     11.31791157	     -1.73342534	     -0.33720076	     -0.16203515	     -2.37376232	     -4.05421170	    -63.22929371	      5.00000000	     -5.00000000	      2.07482810	     -0.10644882	      2.23407395	      4.18039003	     29.90986093	      2.00000000	     -2.00000000	    -29.43515064	      1.18368005	     -0.72789617	      0.00000000	      0.00000000	      0.00000000	      0.00000000	      0.00000000	      0.00000000	      0.00000000	      0.00000000	      0.00000000	     -0.00042092	      0.00000000	      0.00000000	      0.00000000	      0.00000000	      0.00000000	      0.00000000	      0.00000000	      0.00000000	      0.00000000	      0.00000000	      0.00000000	      0.00000000	      0.00000000	      0.00000000	      0.00000000	      0.00000000	      0.00000000	      0.00000000	      0.00000000	      0.00000000	      0.00000000
      2.02000000	     17.25239654	      0.93006407	     -1.40232471	     -0.65621516	      0.76674105	      0.60219723	    -10.87399682	      0.38650158	      1.41224023	    -12.62538637	     -5.00000000	     -0.49356432	      6.32288926	     -2.07175037	      5.00000000	      0.09299125	     11.30121256	     -1.71654304	     -0.34816870	      0.62578228	     -2.41846064	     -4.55812104	    -62.81668334	      5.00000000	     -5.00000000	      2.08706792	     -0.13674886	      2.09272532	      4.35035865	     29.93465014	      2.00000000	     -2.00000000	    -29.39370071	      1.02221169	     -0.61581608	      0.00000000	      0.00000000	      0.00000000	      0.00000000	      0.00000000	      0.00000000	      0.00000000	      0.00000000	      0.00000000	     -0.00042092	      0.00000000	      0.00000000	      0.00000000	      0.00000000	      0.00000000	      0.00000000	      0.00000000	      0.00000000	      0.00000000	      0.00000000	      0.00000000	      0.00000000	      0.00000000	      0.00000000	      0.00000000	      0.00000000	      0.00000000	      0.00000000	      0.00000000	      0.00000000	      0.00000000
      2.02500000	     17.18323312	      1.03746649	     -1.66837885	     -0.65100386	      0.76722559	      0.60296956	    -11.56415227	      0.21558642	      1.33964381	    -11.98659323	     -5.00000000	     -0.48326012	      6.44875916	     -1.98819945	      5.00000000	      0.25676774	     11.28199581	     -1.69396603	     -0.36145067	      1.35265887	     -2.42712489	     -5.12975115	    -62.30631263	      5.00000000	     -5.00000000	      2.09936609	     -0.27451828	      1.88426030	      4.63601928	     29.96376435	      2.00000000	     -2.00000000	    -29.37479400	      0.74756012	     -0.41873425	      0.00000000	      0.00000000	      0.00000000	      0.00000000	      0.00000000	      0.00000000	      0.00000000	      0.00000000	      0.00000000	     -0.00042092	      0.00000000	      0.00000000	      0.00000000	      0.00000000	      0.00000000	      0.00000000	      0.00000000	      0.00000000	      0.00000000	      0.00000000	      0.00000000	      0.00000000	      0.00000000	      0.00000000	      0.00000000	      0.00000000	      0.00000000	      0.00000000	      0.00000000	      0.00000000	      0.00000000
      2.03000000	     17.33558567	      1.22486668	     -2.27730824	     -0.64601155	      0.76784241	      0.60405371	    -12.32143136	     -0.10165575	      1.21763108	    -11.57693206	     -5.00000000	     -0.58375827	      6.57317969	     -1.60296598	      5.00000000	      0.88454125	     11.20997871	     -1.60800460	     -0.41151545	      1.70561067	     -2.33315239	     -6.00295004	    -61.57593919	      5.00000000	     -5.00000000	      2.08314741	     -0.25952371	      1.30707165	      5.27286627	     30.07120525	      2.00000000	     -2.00000000	    -29.67046841	      0.20203666	      0.10774606	      0.00000000	      0.00000000	      0.00000000	      0.00000000	      0.00000000	      0.00000000	      0.00000000	      0.00000000	      0.00000000	     -0.00042092	      0.00000000	      0.00000000	      0.00000000	      0.00000000	      0.00000000	      0.00000000	      0.00000000	      0.00000000	      0.00000000	      0.00000000	      0.00000000	      0.00000000	      0.00000000	      0.00000000	      0.00000000	      0.00000000	      0.00000000	      0.00000000	      0.00000000	      0.00000000	      0.00000000
